PathFileType	4	(X/Y/Z)	S1_nor_slow_right.trc
DataRate	CameraRate	NumFrames	NumMarkers	Units	OrigDataRate	OrigDataStartFrame	OrigNumFrames
250.00	250.00	21	18	mm	250.00	4946	9891
Frame#	Time	c7	r_should	l_should	clavicle	r_upa	r_elb_l	r_elb_m	r_low	r_wri_l	r_wri_m	r_met	l_upa	l_elb_l	l_elb_m	l_low	l_wri_l	l_wri_m	l_met
	X1	Y1	Z1	X2	Y2	Z2	X3	Y3	Z3	X4	Y4	Z4	X5	Y5	Z5	X6	Y6	Z6	X7	Y7	Z7	X8	Y8	Z8	X9	Y9	Z9	X10	Y10	Z10	X11	Y11	Z11	X12	Y12	Z12	X13	Y13	Z13	X14	Y14	Z14	X15	Y15	Z15	X16	Y16	Z16	X17	Y17	Z17	X18	Y18	Z18
4946	19.78000	888.81653	1422.85779	78.79948	956.86371	1349.33447	248.41492	919.35425	1366.59143	-119.45449	1021.07312	1299.57410	51.90684	945.93036	1141.51477	300.98120	967.52557	1060.99219	308.93442	921.89038	1022.45166	229.82967	1027.19507	947.92133	273.30463	1135.96936	946.24487	280.79413	nan	nan	nan	1180.98352	879.35718	288.25204	908.35693	1145.41174	-162.44763	911.15027	1059.18347	-176.85080	851.27191	1036.63171	-92.85387	853.84491	921.01056	-186.68143	922.61877	824.53241	-173.21005	850.56506	820.87732	-185.97322	932.77307	749.35559	-197.26826
4947	19.78400	888.87842	1422.85901	78.80284	957.05212	1349.34900	248.37706	919.33032	1366.58044	-119.46863	1021.13916	1299.59180	51.84602	946.16193	1141.52405	300.98306	967.79456	1060.80042	308.98010	921.56171	1022.65289	229.58755	1026.98218	947.17682	273.43741	1135.63416	944.79395	280.94470	nan	nan	nan	1180.16528	877.63788	288.49976	908.32550	1145.39819	-162.43723	911.12994	1059.16968	-176.82997	851.27551	1036.62463	-92.81624	853.83228	920.99377	-186.63310	922.63715	824.52722	-173.19365	850.57709	820.85620	-185.91772	932.80103	749.35107	-197.24574
4948	19.78800	888.94202	1422.85620	78.80013	957.24457	1349.35583	248.34824	919.30780	1366.56995	-119.47998	1021.20624	1299.60352	51.77592	946.39972	1141.53027	300.99338	968.07062	1060.60217	309.02945	921.76105	1022.56537	229.73416	1026.74585	946.47815	273.59418	1135.30005	943.34467	281.08801	nan	nan	nan	1179.34888	875.92957	288.74179	908.29535	1145.38379	-162.43207	911.10254	1059.15686	-176.81856	851.27820	1036.61633	-92.77660	853.82062	920.97296	-186.59097	922.65558	824.52234	-173.17110	850.58856	820.83765	-185.86403	932.82080	749.34094	-197.22624
4949	19.79200	888.99951	1422.84900	78.78928	957.44006	1349.34546	248.31773	919.28302	1366.55579	-119.49268	1021.27777	1299.61499	51.71341	946.63623	1141.53357	301.00409	968.35968	1060.38538	309.07922	922.09662	1022.40240	229.97339	1026.46936	945.76056	273.75711	1134.96167	941.89917	281.22934	nan	nan	nan	1178.48669	874.25360	289.01645	908.26361	1145.37024	-162.41885	911.07855	1059.14648	-176.80827	851.27966	1036.61169	-92.73322	853.81470	920.94598	-186.54526	922.67181	824.51245	-173.15086	850.59552	820.81799	-185.81650	932.83325	749.33887	-197.21381
4950	19.79600	889.06036	1422.83850	78.79169	957.64435	1349.32324	248.28305	919.26221	1366.54236	-119.50712	1021.34229	1299.62866	51.65218	946.88751	1141.53564	301.00949	968.65851	1060.15869	309.12872	921.85364	1022.54675	229.79701	1026.20068	945.03949	273.90225	1134.65002	940.47168	281.37329	1111.36987	922.79865	210.89500	1177.68738	872.52106	289.22302	908.22778	1145.35974	-162.41252	911.05377	1059.13660	-176.79674	851.28699	1036.59192	-92.69514	853.80841	920.92261	-186.49529	922.68829	824.50476	-173.13144	850.60040	820.78888	-185.76578	932.84772	749.33777	-197.19505
4951	19.80000	889.12610	1422.83179	78.79845	957.84998	1349.29712	248.24780	919.24176	1366.53564	-119.52442	1021.40973	1299.64392	51.58979	947.01770	1141.69458	300.95139	968.95660	1059.93506	309.16769	921.87524	1022.53223	229.79651	1025.98157	944.31665	274.01572	1134.29480	939.06891	281.52234	1111.29065	922.09332	210.92268	1176.88440	870.82886	289.44736	908.19867	1145.34631	-162.41255	911.02777	1059.12878	-176.79414	851.30109	1036.57739	-92.65580	853.80383	920.89624	-186.45311	922.70184	824.49792	-173.11362	850.61151	820.76178	-185.71252	932.86572	749.33777	-197.17725
4952	19.80400	889.19391	1422.82422	78.80817	958.06018	1349.26440	248.21600	919.21912	1366.52368	-119.53845	1021.47290	1299.65186	51.51070	946.98138	1142.01514	300.77609	969.25665	1059.69873	309.20346	922.15753	1022.36426	229.97987	1025.76697	943.58801	274.13889	1133.96924	937.65497	281.66669	1111.13879	921.15723	210.92719	1176.08716	869.11212	289.68399	908.17383	1145.33545	-162.41528	911.00720	1059.12305	-176.79262	851.32068	1036.55347	-92.60761	853.79810	920.86810	-186.41226	922.71899	824.48877	-173.09677	850.62518	820.74689	-185.66254	932.87665	749.34338	-197.16414
4953	19.80800	889.25909	1422.81555	78.81334	958.27582	1349.23047	248.18665	919.19568	1366.51465	-119.55553	1021.54816	1299.66284	51.45076	947.18158	1142.07300	300.73621	969.56946	1059.46472	309.26401	922.70251	1022.03558	230.36728	1025.52051	942.83948	274.28461	1133.49890	936.07178	281.76498	1111.02185	920.01636	210.50523	1175.25647	867.42017	289.95428	908.15039	1145.32361	-162.41446	910.98724	1059.11084	-176.79405	851.34418	1036.53235	-92.56460	853.79614	920.84717	-186.36922	922.73743	824.47894	-173.07814	850.63977	820.73096	-185.60968	932.89246	749.34186	-197.14705
4954	19.81200	889.33148	1422.80591	78.82339	958.49408	1349.20361	248.16815	919.17108	1366.50708	-119.57016	1021.61981	1299.67224	51.38823	947.44733	1142.06128	300.73541	969.89386	1059.23730	309.33154	922.88007	1021.90625	230.49802	1025.30054	942.08228	274.41556	1132.81995	934.25470	281.82895	1110.99194	918.69012	209.54745	1174.45129	865.76569	290.20618	908.13049	1145.31421	-162.41541	910.97260	1059.10205	-176.79021	851.37085	1036.51953	-92.53434	853.79913	920.82288	-186.33107	922.75415	824.46796	-173.06151	850.65790	820.70093	-185.55536	932.91205	749.33112	-197.11993
4955	19.81600	889.39990	1422.79199	78.83866	958.71814	1349.17432	248.14908	919.15491	1366.49988	-119.58072	1021.68634	1299.68408	51.32326	947.73218	1142.03735	300.74030	970.21667	1059.00073	309.39185	922.88776	1021.76965	230.41132	1025.10486	941.33234	274.52277	1132.37476	932.74811	281.97391	1110.65173	917.41125	209.62683	1173.61230	864.11542	290.50781	908.11163	1145.30579	-162.42010	910.95782	1059.09094	-176.78986	851.40192	1036.50745	-92.49908	853.80231	920.79767	-186.29395	922.77161	824.45544	-173.03864	850.67432	820.67059	-185.50203	932.92896	749.33167	-197.09825
4956	19.82000	889.46582	1422.78845	78.86000	958.92773	1349.14001	248.12012	919.13361	1366.49890	-119.59590	1021.75153	1299.69397	51.25774	948.03607	1142.00281	300.74374	970.53864	1058.75439	309.45041	922.81604	1021.57678	230.14198	1024.87439	940.62042	274.63342	1132.03003	931.35254	282.12668	1110.24622	916.18634	209.87862	1172.76550	862.45685	290.80908	908.09460	1145.29895	-162.42220	910.94531	1059.08521	-176.78761	851.42969	1036.49023	-92.46195	853.80994	920.77118	-186.25174	922.78668	824.44727	-173.01161	850.68781	820.64471	-185.44731	932.94818	749.33148	-197.07936
4957	19.82400	889.52448	1422.78601	78.86635	959.12482	1349.12659	248.10503	919.11981	1366.49255	-119.60558	1021.81635	1299.69897	51.19984	948.35712	1141.96021	300.74121	970.85236	1058.51611	309.51102	922.89050	1021.44238	230.09766	1024.58044	939.94324	274.76199	1131.71936	930.02368	282.28537	1109.62158	914.76758	210.13689	1171.90100	860.84973	291.12906	908.07642	1145.29285	-162.42815	910.93341	1059.07971	-176.79404	851.46344	1036.47217	-92.41414	853.81866	920.74664	-186.21332	922.80493	824.43402	-172.98605	850.70227	820.61945	-185.38808	932.96277	749.32452	-197.05948
4958	19.82800	889.58563	1422.77405	78.85933	959.32385	1349.10779	248.07333	919.11011	1366.49182	-119.62290	1021.87695	1299.70532	51.14137	948.69672	1141.92639	300.74060	971.17340	1058.27051	309.56830	922.95599	1021.35144	230.09636	1024.33008	939.23273	274.88330	1131.36670	928.69763	282.44775	1108.74768	913.06689	210.41589	1171.07056	859.23914	291.43176	908.06451	1145.28760	-162.42932	910.92181	1059.06360	-176.78957	851.50189	1036.46021	-92.36672	853.82410	920.72339	-186.17155	922.82666	824.42334	-172.96510	850.72913	820.59290	-185.32475	932.98938	749.31354	-197.03867
4959	19.83200	889.64740	1422.76147	78.85747	959.51117	1349.08655	248.05498	919.09796	1366.48755	-119.64247	1021.93811	1299.70715	51.09384	949.02765	1141.89929	300.73148	971.49786	1058.01990	309.62375	923.06421	1021.27374	230.13217	1024.15222	938.49835	274.96994	1131.04797	927.36115	282.60565	1108.16760	911.65210	210.76324	1170.21790	857.64417	291.74634	908.05444	1145.27881	-162.43628	910.90625	1059.04651	-176.79424	851.54572	1036.45178	-92.32249	853.83234	920.69818	-186.12547	922.84540	824.41071	-172.94339	850.75549	820.57239	-185.26358	933.01080	749.30444	-197.01730
4960	19.83600	889.69934	1422.76147	78.85051	959.68567	1349.06531	248.03563	919.08984	1366.47974	-119.65902	1021.99493	1299.70715	51.05037	949.33887	1141.87524	300.72266	971.82574	1057.78040	309.67380	922.98334	1021.37329	230.06612	1023.98291	937.78009	275.04086	1130.70557	926.06091	282.77707	1107.73450	910.40039	211.04253	1169.40527	856.05927	292.02716	908.04877	1145.26172	-162.43813	910.90271	1059.02820	-176.79431	851.59180	1036.44165	-92.28284	853.84576	920.67841	-186.08162	922.86945	824.39923	-172.92110	850.77435	820.54724	-185.19530	933.03101	749.29401	-197.00139
4961	19.84000	889.74927	1422.75745	78.84525	959.85474	1349.05713	248.00520	919.09167	1366.47083	-119.68018	1022.04919	1299.70642	51.00150	949.64600	1141.86072	300.69339	972.15454	1057.55310	309.71341	923.00726	1021.55566	230.13847	1023.75391	937.10339	275.13864	1130.34778	924.76556	282.94711	1107.25244	909.08435	211.42891	1168.57678	854.49304	292.32556	908.04681	1145.24365	-162.44064	910.91644	1059.00854	-176.78015	851.64087	1036.43469	-92.24585	853.86169	920.65350	-186.03995	922.89771	824.38031	-172.89510	850.78949	820.52618	-185.13536	933.05560	749.27960	-196.97104
4962	19.84400	889.79883	1422.75244	78.82555	960.02362	1349.05359	247.97580	919.09863	1366.46375	-119.70844	1022.10858	1299.71252	50.96102	949.97638	1141.86597	300.67581	972.49536	1057.33032	309.73947	923.86987	1021.28650	230.64386	1023.53094	936.43750	275.26187	1129.99609	923.44708	283.12900	1106.46094	908.10455	211.41995	1167.76648	852.88824	292.60892	908.05243	1145.22400	-162.44713	910.93231	1058.97778	-176.76585	851.68597	1036.42603	-92.21102	853.88086	920.62897	-185.99886	922.92596	824.35950	-172.87573	850.81244	820.50592	-185.07495	933.07886	749.25665	-196.94551
4963	19.84800	889.84564	1422.74524	78.79774	960.18958	1349.05725	247.93678	919.11426	1366.45264	-119.74070	1022.16241	1299.71777	50.90442	950.31677	1141.88013	300.65201	972.85065	1057.11572	309.75800	923.87164	1021.42682	230.53081	1023.32104	935.79547	275.36542	1129.65442	922.12927	283.30371	1105.27185	907.48102	210.93030	1166.92700	851.31946	292.91599	908.06128	1145.20459	-162.45323	910.93872	1058.94934	-176.76297	851.72693	1036.40930	-92.18305	853.90149	920.60394	-185.95729	922.95160	824.33704	-172.85985	850.84302	820.48230	-185.01930	933.10364	749.23816	-196.93178
4964	19.85200	889.89514	1422.74939	78.77522	960.34930	1349.05750	247.90387	919.13257	1366.43762	-119.77398	1022.21844	1299.72339	50.84026	950.74774	1141.76013	300.68137	973.20978	1056.89856	309.76862	924.02148	1021.40485	230.55008	1023.10040	935.17017	275.47070	1129.33533	920.86169	283.47647	1104.67932	906.34430	211.02998	1166.13647	849.72546	293.20685	908.07550	1145.18591	-162.45872	910.95374	1058.93201	-176.75983	851.77020	1036.40002	-92.15396	853.92365	920.58246	-185.91910	922.98383	824.31903	-172.84006	850.87537	820.45282	-184.95915	933.13489	749.22321	-196.91928
4965	19.85600	889.94598	1422.75134	78.74652	960.50183	1349.06091	247.86829	919.15674	1366.42175	-119.81168	1022.27856	1299.74011	50.77973	951.31708	1141.48572	300.79266	973.58649	1056.68420	309.77832	924.20752	1021.35492	230.59416	1022.40991	934.80542	275.80414	1129.01062	919.55963	283.63782	1104.24670	905.09082	211.28889	1165.27856	848.17987	293.55258	908.09216	1145.16833	-162.45865	910.97742	1058.91895	-176.75688	851.82025	1036.39258	-92.11313	853.94946	920.55658	-185.88269	923.01672	824.30219	-172.82220	850.89734	820.43079	-184.90495	933.16583	749.21423	-196.90588
4966	19.86000	889.99438	1422.75244	78.70905	960.66040	1349.06726	247.83612	919.17566	1366.41028	-119.84661	1022.33588	1299.76172	50.71917	951.68811	1141.43396	300.80167	973.97662	1056.46509	309.79639	924.61871	1021.18823	230.76633	1021.70178	934.40009	276.20618	1128.70178	918.27502	283.79477	1103.86902	903.82391	211.59589	1164.44336	846.63385	293.86188	908.11462	1145.15430	-162.45108	911.00494	1058.90002	-176.74190	851.86285	1036.38086	-92.09525	853.97504	920.53680	-185.85306	923.04633	824.28668	-172.80481	850.91974	820.41058	-184.85986	933.19037	749.20563	-196.89499
